<svg aria-hidden="true" style="position: absolute; width: 0; height: 0; overflow: hidden;" version="1.1" xmlns="http://www.w3.org/2000/svg" xmlns:xlink="http://www.w3.org/1999/xlink">
<defs>
<symbol id="icon-search" viewBox="0 0 26 28">
<path d="M18 13c0-3.859-3.141-7-7-7s-7 3.141-7 7 3.141 7 7 7 7-3.141 7-7zM26 26c0 1.094-0.906 2-2 2-0.531 0-1.047-0.219-1.406-0.594l-5.359-5.344c-1.828 1.266-4.016 1.937-6.234 1.937-6.078 0-11-4.922-11-11s4.922-11 11-11 11 4.922 11 11c0 2.219-0.672 4.406-1.937 6.234l5.359 5.359c0.359 0.359 0.578 0.875 0.578 1.406z"></path>
</symbol>
<symbol id="icon-star" viewBox="0 0 26 28">
<path d="M26 10.109c0 0.281-0.203 0.547-0.406 0.75l-5.672 5.531 1.344 7.812c0.016 0.109 0.016 0.203 0.016 0.313 0 0.406-0.187 0.781-0.641 0.781-0.219 0-0.438-0.078-0.625-0.187l-7.016-3.687-7.016 3.687c-0.203 0.109-0.406 0.187-0.625 0.187-0.453 0-0.656-0.375-0.656-0.781 0-0.109 0.016-0.203 0.031-0.313l1.344-7.812-5.688-5.531c-0.187-0.203-0.391-0.469-0.391-0.75 0-0.469 0.484-0.656 0.875-0.719l7.844-1.141 3.516-7.109c0.141-0.297 0.406-0.641 0.766-0.641s0.625 0.344 0.766 0.641l3.516 7.109 7.844 1.141c0.375 0.063 0.875 0.25 0.875 0.719z"></path>
</symbol>
<symbol id="icon-star-o" viewBox="0 0 26 28">
<path d="M17.766 15.687l4.781-4.641-6.594-0.969-2.953-5.969-2.953 5.969-6.594 0.969 4.781 4.641-1.141 6.578 5.906-3.109 5.891 3.109zM26 10.109c0 0.281-0.203 0.547-0.406 0.75l-5.672 5.531 1.344 7.812c0.016 0.109 0.016 0.203 0.016 0.313 0 0.422-0.187 0.781-0.641 0.781-0.219 0-0.438-0.078-0.625-0.187l-7.016-3.687-7.016 3.687c-0.203 0.109-0.406 0.187-0.625 0.187-0.453 0-0.656-0.375-0.656-0.781 0-0.109 0.016-0.203 0.031-0.313l1.344-7.812-5.688-5.531c-0.187-0.203-0.391-0.469-0.391-0.75 0-0.469 0.484-0.656 0.875-0.719l7.844-1.141 3.516-7.109c0.141-0.297 0.406-0.641 0.766-0.641s0.625 0.344 0.766 0.641l3.516 7.109 7.844 1.141c0.375 0.063 0.875 0.25 0.875 0.719z"></path>
</symbol>
<symbol id="icon-retweet" viewBox="0 0 30 28">
<path d="M20 23.5c0 0.266-0.234 0.5-0.5 0.5h-15c-0.578 0-0.5-0.609-0.5-1v-9h-3c-0.547 0-1-0.453-1-1 0-0.234 0.078-0.469 0.234-0.641l5-6c0.187-0.219 0.469-0.344 0.766-0.344s0.578 0.125 0.766 0.344l5 6c0.156 0.172 0.234 0.406 0.234 0.641 0 0.547-0.453 1-1 1h-3v6h9c0.141 0 0.297 0.063 0.391 0.172l2.5 3c0.063 0.094 0.109 0.219 0.109 0.328zM30 17c0 0.234-0.078 0.469-0.234 0.641l-5 6c-0.187 0.219-0.469 0.359-0.766 0.359s-0.578-0.141-0.766-0.359l-5-6c-0.156-0.172-0.234-0.406-0.234-0.641 0-0.547 0.453-1 1-1h3v-6h-9c-0.141 0-0.297-0.063-0.391-0.187l-2.5-3c-0.063-0.078-0.109-0.203-0.109-0.313 0-0.266 0.234-0.5 0.5-0.5h15c0.578 0 0.5 0.609 0.5 1v9h3c0.547 0 1 0.453 1 1z"></path>
</symbol>
<symbol id="icon-twitter" viewBox="0 0 26 28">
<path d="M25.312 6.375c-0.688 1-1.547 1.891-2.531 2.609 0.016 0.219 0.016 0.438 0.016 0.656 0 6.672-5.078 14.359-14.359 14.359-2.859 0-5.516-0.828-7.75-2.266 0.406 0.047 0.797 0.063 1.219 0.063 2.359 0 4.531-0.797 6.266-2.156-2.219-0.047-4.078-1.5-4.719-3.5 0.313 0.047 0.625 0.078 0.953 0.078 0.453 0 0.906-0.063 1.328-0.172-2.312-0.469-4.047-2.5-4.047-4.953v-0.063c0.672 0.375 1.453 0.609 2.281 0.641-1.359-0.906-2.25-2.453-2.25-4.203 0-0.938 0.25-1.797 0.688-2.547 2.484 3.062 6.219 5.063 10.406 5.281-0.078-0.375-0.125-0.766-0.125-1.156 0-2.781 2.25-5.047 5.047-5.047 1.453 0 2.766 0.609 3.687 1.594 1.141-0.219 2.234-0.641 3.203-1.219-0.375 1.172-1.172 2.156-2.219 2.781 1.016-0.109 2-0.391 2.906-0.781z"></path>
</symbol>
<symbol id="icon-reply" viewBox="0 0 28 28">
<path d="M28 17.5c0 2.188-1.094 5.047-1.984 7.047-0.172 0.359-0.344 0.859-0.578 1.188-0.109 0.156-0.219 0.266-0.438 0.266-0.313 0-0.5-0.25-0.5-0.547 0-0.25 0.063-0.531 0.078-0.781 0.047-0.641 0.078-1.281 0.078-1.922 0-7.453-4.422-8.75-11.156-8.75h-3.5v4c0 0.547-0.453 1-1 1-0.266 0-0.516-0.109-0.703-0.297l-8-8c-0.187-0.187-0.297-0.438-0.297-0.703s0.109-0.516 0.297-0.703l8-8c0.187-0.187 0.438-0.297 0.703-0.297 0.547 0 1 0.453 1 1v4h3.5c5.125 0 11.5 0.906 13.672 6.297 0.656 1.656 0.828 3.453 0.828 5.203z"></path>
</symbol>
<symbol id="icon-ellipsis-h" viewBox="0 0 22 28">
<path d="M6 11.5v3c0 0.828-0.672 1.5-1.5 1.5h-3c-0.828 0-1.5-0.672-1.5-1.5v-3c0-0.828 0.672-1.5 1.5-1.5h3c0.828 0 1.5 0.672 1.5 1.5zM14 11.5v3c0 0.828-0.672 1.5-1.5 1.5h-3c-0.828 0-1.5-0.672-1.5-1.5v-3c0-0.828 0.672-1.5 1.5-1.5h3c0.828 0 1.5 0.672 1.5 1.5zM22 11.5v3c0 0.828-0.672 1.5-1.5 1.5h-3c-0.828 0-1.5-0.672-1.5-1.5v-3c0-0.828 0.672-1.5 1.5-1.5h3c0.828 0 1.5 0.672 1.5 1.5z"></path>
</symbol>
<symbol id="icon-ellipsis-v" viewBox="0 0 6 28">
<path d="M6 19.5v3c0 0.828-0.672 1.5-1.5 1.5h-3c-0.828 0-1.5-0.672-1.5-1.5v-3c0-0.828 0.672-1.5 1.5-1.5h3c0.828 0 1.5 0.672 1.5 1.5zM6 11.5v3c0 0.828-0.672 1.5-1.5 1.5h-3c-0.828 0-1.5-0.672-1.5-1.5v-3c0-0.828 0.672-1.5 1.5-1.5h3c0.828 0 1.5 0.672 1.5 1.5zM6 3.5v3c0 0.828-0.672 1.5-1.5 1.5h-3c-0.828 0-1.5-0.672-1.5-1.5v-3c0-0.828 0.672-1.5 1.5-1.5h3c0.828 0 1.5 0.672 1.5 1.5z"></path>
</symbol>
<symbol id="icon-link" viewBox="0 0 24 28">
<path d="M20 14.5v-7.5c0-0.547-0.453-1-1-1h-7.5c-0.406 0-0.766 0.25-0.922 0.609-0.156 0.375-0.078 0.812 0.219 1.094l2.25 2.25-8.344 8.344c-0.391 0.391-0.391 1.016 0 1.406l1.594 1.594c0.391 0.391 1.016 0.391 1.406 0l8.344-8.344 2.25 2.25c0.187 0.203 0.438 0.297 0.703 0.297 0.125 0 0.266-0.031 0.391-0.078 0.359-0.156 0.609-0.516 0.609-0.922zM24 6.5v15c0 2.484-2.016 4.5-4.5 4.5h-15c-2.484 0-4.5-2.016-4.5-4.5v-15c0-2.484 2.016-4.5 4.5-4.5h15c2.484 0 4.5 2.016 4.5 4.5z"></path>
</symbol>
<symbol id="icon-envelope" viewBox="0 0 28 28">
<path d="M28 10.219v15.281c0 1.375-1.125 2.5-2.5 2.5h-23c-1.375 0-2.5-1.125-2.5-2.5v-15.281c0-0.141 0.063-0.281 0.172-0.375 1.641-1.437 1.656-1.609 9.812-7.562 0.984-0.719 2.719-2.281 4.016-2.281s3.047 1.578 4.016 2.281c8.156 5.953 8.172 6.125 9.812 7.562 0.109 0.094 0.172 0.234 0.172 0.375zM19.187 19.359c2.438-1.766 4.141-3 5.391-3.938 0.219-0.156 0.266-0.469 0.094-0.688l-0.594-0.812c-0.172-0.219-0.484-0.266-0.703-0.094-1.234 0.906-2.922 2.156-5.359 3.906-0.969 0.703-2.719 2.266-4.016 2.266s-3.047-1.563-4.016-2.266c-2.438-1.766-4.125-3-5.359-3.906-0.219-0.172-0.531-0.125-0.703 0.094l-0.594 0.812c-0.172 0.219-0.125 0.531 0.094 0.688 1.25 0.938 2.953 2.172 5.391 3.938 1.219 0.875 3.141 2.641 5.187 2.641 2.063 0 4.031-1.797 5.187-2.641z"></path>
</symbol>
<symbol id="icon-hashtag" viewBox="0 0 28 28">
<path d="M15.484 16l1-4h-3.969l-1 4h3.969zM27.484 8.125l-0.875 3.5c-0.063 0.219-0.25 0.375-0.484 0.375h-5.109l-1 4h4.859c0.156 0 0.297 0.078 0.391 0.187 0.094 0.125 0.141 0.281 0.094 0.438l-0.875 3.5c-0.047 0.219-0.25 0.375-0.484 0.375h-5.109l-1.266 5.125c-0.063 0.219-0.266 0.375-0.484 0.375h-3.5c-0.156 0-0.313-0.078-0.406-0.187-0.094-0.125-0.125-0.281-0.094-0.438l1.219-4.875h-3.969l-1.266 5.125c-0.063 0.219-0.266 0.375-0.484 0.375h-3.516c-0.141 0-0.297-0.078-0.391-0.187-0.094-0.125-0.125-0.281-0.094-0.438l1.219-4.875h-4.859c-0.156 0-0.297-0.078-0.391-0.187-0.094-0.125-0.125-0.281-0.094-0.438l0.875-3.5c0.063-0.219 0.25-0.375 0.484-0.375h5.109l1-4h-4.859c-0.156 0-0.297-0.078-0.391-0.187-0.094-0.125-0.141-0.281-0.094-0.438l0.875-3.5c0.047-0.219 0.25-0.375 0.484-0.375h5.109l1.266-5.125c0.063-0.219 0.266-0.375 0.5-0.375h3.5c0.141 0 0.297 0.078 0.391 0.187 0.094 0.125 0.125 0.281 0.094 0.438l-1.219 4.875h3.969l1.266-5.125c0.063-0.219 0.266-0.375 0.5-0.375h3.5c0.141 0 0.297 0.078 0.391 0.187 0.094 0.125 0.125 0.281 0.094 0.438l-1.219 4.875h4.859c0.156 0 0.297 0.078 0.391 0.187 0.094 0.125 0.125 0.281 0.094 0.438z"></path>
</symbol>
<symbol id="icon-user" viewBox="0 0 20 28">
<path d="M20 21.859c0 2.281-1.5 4.141-3.328 4.141h-13.344c-1.828 0-3.328-1.859-3.328-4.141 0-4.109 1.016-8.859 5.109-8.859 1.266 1.234 2.984 2 4.891 2s3.625-0.766 4.891-2c4.094 0 5.109 4.75 5.109 8.859zM16 8c0 3.313-2.688 6-6 6s-6-2.688-6-6 2.688-6 6-6 6 2.688 6 6z"></path>
</symbol>
<symbol id="icon-cog" viewBox="0 0 32 32">
<path d="M32 17.969v-4l-4.781-1.992c-0.133-0.375-0.273-0.738-0.445-1.094l1.93-4.805-2.829-2.828-4.762 1.961c-0.363-0.176-0.734-0.324-1.117-0.461l-2.027-4.75h-4l-1.977 4.734c-0.398 0.141-0.781 0.289-1.16 0.469l-4.754-1.91-2.828 2.828 1.938 4.711c-0.188 0.387-0.34 0.781-0.485 1.188l-4.703 2.011v4l4.707 1.961c0.145 0.406 0.301 0.801 0.488 1.188l-1.902 4.742 2.828 2.828 4.723-1.945c0.379 0.18 0.766 0.324 1.164 0.461l2.023 4.734h4l1.98-4.758c0.379-0.141 0.754-0.289 1.113-0.461l4.797 1.922 2.828-2.828-1.969-4.773c0.168-0.359 0.305-0.723 0.438-1.094l4.782-2.039zM15.969 22c-3.312 0-6-2.688-6-6s2.688-6 6-6 6 2.688 6 6-2.688 6-6 6z"></path>
</symbol>
<symbol id="icon-at" viewBox="0 0 32 32">
<path d="M29.844 24c1.371-2.355 2.156-5.078 2.156-8 0-8.836-7.164-16-16-16s-16 7.164-16 16 7.164 16 16 16c4.418 0 8.418-1.789 11.312-4.688l-2.832-2.832c-2.171 2.176-5.171 3.52-8.48 3.52-6.617 0-12-5.383-12-12s5.383-12 12-12 12 5.383 12 12c0 1.422-0.273 2.781-0.73 4.047l-0.032-0.047h-3.238v-11.957h-8c-4.418 0-8 3.582-8 8s3.582 8 8 8c1.836 0 3.508-0.645 4.859-1.684 0.727 0.969 1.836 1.641 3.141 1.641h5.844zM20 14.008v2.035c0 2.207-1.797 4-4 4s-4-1.793-4-4 1.797-4 4-4h4v1.965z"></path>
</symbol>
<symbol id="icon-home" viewBox="0 0 32 32">
<path d="M16 1l-16 16 3 3 3-3v13h8v-6h4v6h8v-13l3 3 3-3-16-16zM16 14c-1.105 0-2-0.895-2-2s0.895-2 2-2c1.105 0 2 0.895 2 2s-0.895 2-2 2z"></path>
</symbol>
<symbol id="icon-quill" viewBox="0 0 32 32">
<path d="M0 32c4-12 14.469-32 32-32-8.219 6.594-12 22-18 22s-6 0-6 0l-6 10h-2z"></path>
</symbol>
<symbol id="icon-close" viewBox="0 0 24 24">
<path d="M18.984 6.422l-5.578 5.578 5.578 5.578-1.406 1.406-5.578-5.578-5.578 5.578-1.406-1.406 5.578-5.578-5.578-5.578 1.406-1.406 5.578 5.578 5.578-5.578z"></path>
</symbol>
</defs>
</svg>
